Coordinates
version=1
nRows=7
nColumns=40
inDegrees=yes

Units are S.I. units (second, meters, Newtons, ...)
Angles are in degrees.

endheader
time	pelvis_tilt	pelvis_list	pelvis_rotation	pelvis_tx	pelvis_ty	pelvis_tz	hip_flexion_r	hip_adduction_r	hip_rotation_r	knee_angle_r	knee_angle_r_beta	ankle_angle_r	subtalar_angle_r	mtp_angle_r	hip_flexion_l	hip_adduction_l	hip_rotation_l	knee_angle_l	knee_angle_l_beta	ankle_angle_l	subtalar_angle_l	mtp_angle_l	lumbar_extension	lumbar_bending	lumbar_rotation	arm_flex_r	arm_add_r	arm_rot_r	elbow_flex_r	pro_sup_r	wrist_flex_r	wrist_dev_r	arm_flex_l	arm_add_l	arm_rot_l	elbow_flex_l	pro_sup_l	wrist_flex_l	wrist_dev_l
      6.02500000	     -4.68976332	     -6.53156671	      3.58191074	      0.93753286	      0.92015135	      0.51340752	     -1.65655172	      5.53316610	    -15.86962084	      9.14149757	      9.14149757	     16.19295120	      5.85089369	     -3.13667806	     34.58239908	     -9.25874631	     -2.48349513	     20.20831883	     20.20831883	      6.55314879	     -8.41362505	     11.50256733	     -9.73386051	      7.19730379	      3.16808403	     53.27182624	    -14.04222178	      2.79294916	    101.07580359	     44.20984208	      0.00000000	      0.00000000	    -18.52340690	     -7.18650677	      4.71538034	     26.31285124	     45.26385748	      0.00000000	      0.00000000
      6.03621429	     -4.68271921	     -6.67197425	      3.33234075	      0.93911525	      0.91875345	      0.51151173	     -2.26551889	      5.43961699	    -16.22282408	      9.39352456	      9.39352456	     17.30858577	      7.12628506	     -1.54835950	     34.01713853	     -9.27765317	     -2.91814779	     20.39237387	     20.39237387	      4.92476333	     -9.89582808	      9.18323734	     -9.56571042	      7.34729812	      3.27783333	     53.56333640	    -14.30604528	      3.29834801	    103.19473569	     44.21820835	      0.00000000	      0.00000000	    -20.32311902	     -7.56938621	      6.15365250	     29.54789316	     45.01743546	      0.00000000	      0.00000000
      6.04742857	     -4.75472662	     -6.72533105	      2.98747543	      0.94065947	      0.91735412	      0.50971291	     -2.81134962	      5.30463106	    -15.95632342	      9.50595635	      9.50595635	     17.71535645	      7.40520042	     -1.62914121	     33.62509967	     -9.33886009	     -3.53707676	     20.95501476	     20.95501476	      4.41286297	    -10.60079880	      9.27155747	     -9.20998155	      7.38640113	      3.36423799	     53.85269381	    -14.22944082	      3.37808827	    103.74065864	     44.20473452	      0.00000000	      0.00000000	    -20.93442835	     -7.33895633	      6.27139945	     29.44910010	     44.99320666	      0.00000000	      0.00000000
      6.05864286	     -4.81801125	     -6.73982965	      2.69202674	      0.94217960	      0.91596405	      0.50767609	     -3.21253665	      5.01745337	    -16.13780377	      9.97150972	      9.97150972	     18.49610926	      8.23580125	     -0.94246377	     33.17080409	     -9.25658492	     -3.71395855	     21.39556572	     21.39556572	      3.24025503	    -11.93380935	      8.04069931	     -8.95796867	      7.40139671	      3.63452994	     53.70811702	    -14.69007223	      3.66327058	    105.69110189	     44.19019212	      0.00000000	      0.00000000	    -21.67062281	     -7.45469034	      7.00530742	     30.44268250	     44.90735024	      0.00000000	      0.00000000
      6.06985714	     -4.88845468	     -6.73122650	      2.34571387	      0.94373388	      0.91482571	      0.50577241	     -3.70477709	      4.78925007	    -15.76536902	     10.17663576	     10.17663576	     18.86765516	      8.38774825	     -1.04953174	     32.75837285	     -9.27685134	     -4.09952894	     21.97022800	     21.97022800	      2.91003706	    -12.37055704	      8.06781783	     -8.60627114	      7.35503605	      3.59659898	     53.64575243	    -14.66855428	      3.67293920	    105.93493259	     44.18411766	      0.00000000	      0.00000000	    -22.05500857	     -7.23712419	      7.07409305	     30.35498689	     44.89315640	      0.00000000	      0.00000000
      6.08107143	     -4.83718384	     -6.60077355	      1.97861512	      0.94526471	      0.91392995	      0.50380761	     -4.16925499	      4.36841386	    -15.40846654	     10.68602024	     10.68602024	     19.22864645	      8.45085951	     -1.15667218	     32.39409949	     -9.19004054	     -4.29540452	     22.89954221	     22.89954221	      2.77310134	    -13.05880693	      7.86965827	     -8.47275519	      7.11464147	      3.48051250	     53.34951899	    -14.54172279	      3.76777964	    106.42272573	     44.16765216	      0.00000000	      0.00000000	    -22.38957467	     -7.00563601	      7.15531252	     30.31406970	     44.87845205	      0.00000000	      0.00000000
      6.09228571	     -4.75776902	     -6.46718920	      1.70639829	      0.94670272	      0.91330474	      0.50166748	     -4.49440847	      3.90359947	    -15.12222706	     11.49835915	     11.49835915	     19.59126925	      8.35330651	     -1.31061151	     32.05119012	     -9.04684357	     -4.28061096	     23.83896842	     23.83896842	      2.79069417	    -13.75802102	      7.55148821	     -8.38815828	      6.89213742	      3.23676628	     52.82612688	    -14.42340498	      3.87835209	    107.02929408	     44.14638744	      0.00000000	      0.00000000	    -22.50962960	     -6.83902857	      7.22296433	     30.34611134	     44.86914437	      0.00000000	      0.00000000
